<mxfile host="app.diagrams.net" modified="2021-10-10T03:03:18.549Z" agent="5.0 (Windows NT 10.0; Win64; x64) AppleWebKit/537.36 (KHTML, like Gecko) Chrome/94.0.4606.71 Safari/537.36 Edg/94.0.992.38" etag="zGNOIahzIWXY3A2ACIXt" version="15.5.0" type="github">
  <diagram id="H47WDrBHhAyzpfSi4met" name="Page-1">
    <mxGraphModel dx="1022" dy="468" grid="1" gridSize="10" guides="1" tooltips="1" connect="1" arrows="1" fold="1" page="1" pageScale="1" pageWidth="850" pageHeight="1100" math="0" shadow="0">
      <root>
        <mxCell id="0" />
        <mxCell id="1" parent="0" />
        <mxCell id="Iesee7ioT8HqZ-Mq-9rp-2" value="KC Digital Drive and CodeForKC&lt;br&gt;Local Government Reporter&lt;br&gt;System Context Diagram&lt;br&gt;(The end user perspective)" style="text;strokeColor=none;fillColor=none;html=1;fontSize=24;fontStyle=1;verticalAlign=middle;align=center;" parent="1" vertex="1">
          <mxGeometry x="370" y="60" width="100" height="40" as="geometry" />
        </mxCell>
      </root>
    </mxGraphModel>
  </diagram>
</mxfile>
